<?xml version="1.0" encoding="UTF-8" ?>
<!DOCTYPE svg PUBLIC "-//W3C//DTD SVG 1.1//EN" "http://www.w3.org/Graphics/SVG/1.1/DTD/svg11.dtd">
<svg width="64px" height="64px" viewBox="304 288 416 448" version="1.1" xmlns="http://www.w3.org/2000/svg">
<g id="#000000ff">
<path fill="#000000" opacity="1.00" d=" M 503.47 288.81 C 510.02 286.51 517.54 286.96 523.71 290.19 C 531.16 293.95 538.36 298.19 545.55 302.44 C 578.81 320.67 611.67 339.64 644.72 358.27 C 660.49 367.19 676.00 376.59 692.09 384.94 C 699.09 388.53 707.19 391.31 711.77 398.16 C 718.03 407.42 719.41 419.07 719.25 430.00 C 718.46 440.67 718.47 451.39 719.22 462.06 C 719.30 503.71 719.48 545.36 719.37 587.01 C 719.32 593.63 719.70 600.28 719.19 606.90 C 718.24 614.87 715.45 622.89 710.05 628.96 C 706.74 632.62 702.41 635.18 697.91 637.12 C 681.38 644.50 666.55 655.03 650.52 663.35 C 632.61 673.57 614.69 683.75 596.57 693.59 C 585.32 699.97 573.87 706.00 562.90 712.85 C 552.84 718.37 542.88 724.06 533.09 730.03 C 526.81 734.05 519.51 736.71 512.02 736.85 C 504.01 736.75 496.34 733.64 489.71 729.32 C 477.29 721.54 464.18 714.95 451.75 707.22 C 435.56 698.03 419.22 689.11 402.94 680.09 C 389.56 672.43 376.13 664.85 362.63 657.40 C 349.58 649.57 336.54 641.65 322.61 635.46 C 310.55 629.68 304.82 615.79 304.59 603.03 C 304.61 555.69 304.60 508.34 304.81 461.00 C 305.53 451.02 305.55 440.98 304.79 431.01 C 304.45 420.92 305.62 410.46 310.25 401.36 C 312.98 395.94 317.73 391.83 323.15 389.24 C 342.25 380.19 360.21 369.00 378.61 358.66 C 412.05 339.76 445.36 320.62 479.01 302.11 C 487.05 297.48 494.94 292.49 503.47 288.81 M 504.89 315.64 C 498.63 316.62 493.55 321.37 490.88 326.93 C 488.85 332.47 488.87 338.67 490.51 344.30 C 482.28 349.32 474.64 355.23 466.62 360.58 C 460.89 364.27 455.37 368.27 449.95 372.39 C 446.79 370.79 443.64 368.75 439.99 368.65 C 433.78 368.24 428.23 371.83 423.60 375.56 C 418.21 381.24 418.78 389.89 420.86 396.87 C 405.57 407.85 391.04 419.88 376.43 431.75 C 365.68 425.39 350.84 425.89 341.53 434.65 C 335.81 442.37 334.03 452.64 336.44 461.92 C 337.57 466.86 341.87 470.13 343.69 474.78 C 347.53 476.70 351.70 477.79 355.83 478.92 C 355.80 502.91 355.85 526.91 355.81 550.91 C 351.67 551.88 347.91 553.89 344.17 555.83 C 339.87 561.00 336.37 567.10 335.47 573.87 C 333.49 587.41 343.92 602.09 357.91 603.12 C 365.53 604.16 373.07 601.43 379.11 596.91 C 386.60 600.89 393.79 605.41 400.77 610.23 C 406.53 614.19 412.75 617.38 418.80 620.87 C 419.29 628.34 423.05 635.48 429.11 639.87 C 434.61 641.74 440.78 641.13 446.26 639.40 C 460.67 648.64 474.37 658.94 488.75 668.23 C 481.44 679.23 484.03 695.34 494.51 703.40 C 501.61 709.98 512.34 711.12 521.31 708.30 C 528.95 705.28 535.53 698.99 538.04 691.06 C 540.74 683.50 539.45 674.93 535.24 668.17 C 549.68 659.00 563.31 648.61 577.74 639.40 C 583.22 641.13 589.39 641.74 594.89 639.87 C 600.95 635.48 604.70 628.33 605.20 620.87 C 609.77 618.23 614.45 615.76 618.95 613.00 C 627.50 607.62 635.61 601.35 644.84 597.18 C 650.92 600.86 657.66 604.13 665.02 603.22 C 679.83 602.79 691.06 587.10 688.41 572.91 C 687.12 566.68 684.30 560.60 679.74 556.10 C 676.31 553.58 672.28 551.98 668.19 550.92 C 668.15 526.92 668.20 502.92 668.17 478.92 C 672.29 477.78 676.47 476.71 680.31 474.78 C 682.12 470.12 686.45 466.85 687.57 461.88 C 689.97 452.61 688.18 442.35 682.46 434.65 C 673.15 425.89 658.32 425.40 647.56 431.75 C 641.87 427.40 636.65 422.49 630.92 418.20 C 621.60 411.17 612.80 403.44 603.14 396.87 C 604.69 391.37 605.52 385.21 603.20 379.80 C 600.98 374.54 595.53 371.84 590.62 369.62 C 584.98 367.25 578.95 369.35 574.05 372.39 C 569.57 369.04 565.12 365.65 560.42 362.61 C 551.30 356.72 542.76 349.97 533.49 344.31 C 535.12 338.67 535.16 332.46 533.11 326.93 C 530.46 321.37 525.39 316.65 519.16 315.65 C 514.46 314.89 509.59 314.89 504.89 315.64 Z" />
<path fill="#000000" opacity="1.00" d=" M 491.76 355.79 C 493.75 354.81 495.96 352.20 498.28 353.81 C 504.47 357.26 512.05 358.94 518.94 356.61 C 522.08 356.12 524.62 353.84 527.66 353.24 C 536.49 357.73 544.03 364.35 552.39 369.63 C 557.66 372.93 562.67 376.64 567.96 379.92 C 564.87 386.79 566.67 394.96 570.68 401.06 C 572.59 402.63 574.38 404.35 576.14 406.09 C 582.30 408.56 588.92 408.55 595.37 407.36 C 595.78 406.71 596.60 405.42 597.01 404.77 C 608.60 412.33 618.42 422.21 629.47 430.49 C 633.16 433.33 636.74 436.32 640.46 439.14 C 637.40 444.69 636.59 451.06 636.88 457.32 C 628.40 459.19 620.24 462.20 612.02 464.95 C 600.13 469.27 587.85 472.47 576.12 477.25 C 570.02 479.66 563.74 481.57 557.58 483.81 C 555.15 477.29 552.75 470.38 547.60 465.44 C 543.98 461.93 540.66 457.74 535.73 456.06 C 532.11 454.77 528.79 452.70 525.03 451.82 C 513.58 449.02 500.99 449.70 490.43 455.19 C 484.15 456.93 479.79 461.94 475.45 466.46 C 470.87 471.27 468.72 477.73 466.42 483.81 C 453.21 479.50 440.41 474.05 427.12 469.99 C 413.73 465.97 400.79 460.44 387.12 457.32 C 387.40 451.07 386.60 444.70 383.54 439.14 C 392.99 431.74 402.50 424.42 411.53 416.52 C 416.63 412.54 421.46 408.16 426.99 404.76 C 427.40 405.41 428.22 406.71 428.63 407.36 C 435.08 408.55 441.70 408.55 447.86 406.09 C 449.62 404.34 451.41 402.62 453.33 401.05 C 457.33 394.94 459.12 386.78 456.04 379.92 C 468.15 372.19 479.86 363.85 491.76 355.79 Z" />
<path fill="#000000" opacity="1.00" d=" M 377.07 475.29 C 379.63 472.47 382.21 469.66 384.29 466.46 C 401.22 471.10 417.70 477.17 434.37 482.64 C 444.76 486.27 454.97 490.43 465.45 493.81 C 464.47 500.49 465.45 507.28 467.60 513.63 C 456.65 518.33 446.63 524.82 436.04 530.21 C 429.52 534.04 422.71 537.35 416.40 541.51 C 412.73 543.96 408.39 545.14 404.73 547.62 C 397.77 552.57 389.68 555.66 382.73 560.65 C 377.77 556.27 372.31 552.06 365.63 550.84 C 365.87 526.88 366.07 502.92 365.83 478.95 C 369.73 478.26 373.52 477.05 377.07 475.29 Z" />
<path fill="#000000" opacity="1.00" d=" M 589.57 482.66 C 606.25 477.18 622.76 471.11 639.71 466.46 C 641.79 469.65 644.36 472.46 646.91 475.28 C 650.47 477.05 654.26 478.26 658.17 478.95 C 657.93 502.92 658.13 526.88 658.37 550.84 C 651.68 552.06 646.23 556.27 641.27 560.65 C 634.33 555.67 626.26 552.59 619.31 547.65 C 615.41 545.04 610.80 543.78 606.95 541.10 C 597.79 535.41 588.21 530.44 578.75 525.29 C 571.45 521.14 564.15 516.95 556.41 513.67 C 558.53 507.29 559.54 500.50 558.55 493.81 C 569.01 490.43 579.19 486.29 589.57 482.66 Z" />
<path fill="#000000" opacity="1.00" d=" M 444.60 537.51 C 453.73 533.14 462.13 527.40 471.29 523.08 C 474.71 529.26 479.97 534.18 485.48 538.48 C 494.81 544.38 506.08 546.48 516.98 546.55 C 524.66 544.10 533.01 542.76 539.57 537.70 C 544.63 533.51 549.52 528.90 552.71 523.08 C 561.88 527.40 570.28 533.14 579.42 537.52 C 591.57 544.28 604.11 550.43 615.63 558.26 C 622.91 562.03 630.52 565.21 637.35 569.82 C 635.49 575.94 636.46 582.44 639.12 588.17 C 634.87 591.26 630.55 594.27 625.94 596.79 C 617.50 601.24 609.76 606.84 601.73 611.97 C 598.54 606.32 592.63 601.56 585.79 602.71 C 580.65 604.18 573.93 604.99 571.54 610.55 C 567.82 617.15 567.44 625.34 570.31 632.32 C 556.46 641.84 542.31 650.93 528.88 661.04 C 521.44 655.52 511.76 656.28 503.10 657.43 C 500.18 657.92 497.65 659.54 495.16 661.03 C 481.68 650.97 467.56 641.83 453.69 632.32 C 456.54 625.36 456.19 617.19 452.49 610.61 C 450.12 605.01 443.37 604.18 438.21 602.71 C 431.38 601.57 425.46 606.32 422.27 611.97 C 414.26 606.86 406.55 601.27 398.13 596.83 C 393.49 594.30 389.15 591.28 384.88 588.17 C 387.54 582.44 388.51 575.94 386.65 569.82 C 393.46 565.23 401.04 562.04 408.31 558.30 C 419.86 550.45 432.41 544.28 444.60 537.51 Z" />
</g>
</svg>
